<?xml version="1.0" encoding="UTF-8" standalone="no"?>
<!-- Created with Inkscape (http://www.inkscape.org/) -->

<svg
   width="500"
   height="500"
   viewBox="0 0 132.29166 132.29167"
   version="1.1"
   id="svg5"
   inkscape:version="1.1.2 (b8e25be8, 2022-02-05)"
   sodipodi:docname="id5.svg"
   inkscape:export-filename="/Users/xunorus/Pictures/id5.png"
   inkscape:export-xdpi="96"
   inkscape:export-ydpi="96"
   xmlns:inkscape="http://www.inkscape.org/namespaces/inkscape"
   xmlns:sodipodi="http://sodipodi.sourceforge.net/DTD/sodipodi-0.dtd"
   xmlns="http://www.w3.org/2000/svg"
   xmlns:svg="http://www.w3.org/2000/svg">
  <sodipodi:namedview
     id="namedview7"
     pagecolor="#ffffff"
     bordercolor="#666666"
     borderopacity="1.0"
     inkscape:pageshadow="2"
     inkscape:pageopacity="0.0"
     inkscape:pagecheckerboard="0"
     inkscape:document-units="mm"
     showgrid="false"
     inkscape:zoom="0.39083508"
     inkscape:cx="-793.17342"
     inkscape:cy="341.5763"
     inkscape:window-width="1206"
     inkscape:window-height="999"
     inkscape:window-x="0"
     inkscape:window-y="25"
     inkscape:window-maximized="0"
     inkscape:current-layer="layer1"
     units="px" />
  <defs
     id="defs2" />
  <g
     inkscape:label="Layer 1"
     inkscape:groupmode="layer"
     id="layer1">
    <path
       style="fill:#1568B0;stroke-width:1.21091"
       d="M 98.476682,99.331787 C 86.591606,96.098036 86.415258,76.649308 84.733778,82.62758 c -3.455833,6.491651 -9.282427,11.97038 -16.171672,14.632551 -5.910796,0.851532 3.249352,-2.598501 4.838394,-3.789 5.49661,-3.061892 9.500071,-8.516113 11.192033,-14.482426 -3.704206,4.02553 -6.148416,9.378673 -11.087401,12.239127 -4.974921,3.43606 -10.873308,5.567258 -16.978611,5.057915 -6.32293,-0.08938 -12.643471,-0.30041 -18.965166,-0.451625 -0.209566,-18.970868 -0.419084,-37.941727 -0.62865,-56.912598 8.335102,0.495598 16.969451,-0.5534 24.96495,2.308031 9.316033,3.709605 18.255946,10.462454 21.842,20.114451 1.521512,5.014561 0.392356,10.404493 1.749631,15.394979 7.700568,-0.874273 6.154782,8.594019 10.294629,12.476771 23.262835,14.825204 31.511825,-13.200139 14.646695,-20.466113 -5.28198,-2.476566 -11.279048,-0.987462 -16.207728,1.557539 -5.680665,0.819385 -2.626995,-6.066349 1.478857,-5.437495 8.980711,-1.828686 20.501141,-0.709985 25.520581,8.047866 4.63837,8.140321 2.2971,20.492608 -6.89935,24.306892 -3.92489,2.20622 -9.19295,0.99463 -12.86863,1.114522 7.12024,3.796133 16.37435,0.154234 21.02396,-5.895255 3.32192,-6.141506 2.80005,-14.021493 -0.0727,-20.248924 -3.53038,-6.954303 -11.8845,-10.313376 -19.33284,-10.321843 0.3319,-6.570808 -3.628568,-31.316469 -0.19309,-30.375589 l 29.41201,-0.446729 c -0.64665,3.199252 -1.32619,6.404976 -1.60578,9.656938 -2.86741,1.967038 -6.76841,1.01339 -10.13117,1.241227 -1.59921,0.384528 -4.13674,-0.93937 -4.8759,1.011018 -2.76512,4.483994 -5.83707,8.843528 -8.33287,13.443605 2.93804,3.996028 8.57398,4.711562 12.06015,8.216096 6.45258,5.41983 8.59078,14.772531 7.08974,22.795812 -3.3575,11.378825 -17.52965,17.062167 -28.019128,11.916457 z M 64.943134,91.429414 C 75.432794,89.160135 82.197107,77.940574 80.52828,67.565691 78.663441,53.208739 64.309039,42.98339 50.288257,43.183124 c -3.038994,-0.027 -6.078262,-0.01469 -9.117372,-0.02518 v 49.647157 c 7.939222,-0.03707 15.961987,0.308833 23.772249,-1.37547 z M 3.5501107,98.789957 C 4.7849523,94.100472 6.2713405,88.448776 5.8690296,83.054785 6.1085258,69.472238 5.9982742,55.886485 6.0545212,42.302392 4.0034424,39.976175 1.6359656,37.875084 -1.5166667e-5,35.226333 6.5501776,34.445066 13.293771,34.421322 19.858416,35.168853 c 5.220461,2.245751 -4.338244,6.677154 -2.426442,10.968762 -0.788603,14.03456 -0.90912,28.116561 -0.742241,42.170708 -0.287825,4.052216 1.753953,7.530023 4.252049,10.510054 1.195636,2.902113 -15.178812,0.452585 -17.3916666,-0.02838 z M 30.272725,66.585582 V 34.309811 c 11.666222,0.765257 23.504151,0.306773 34.970243,2.861737 C 74.805724,39.8428 83.001795,47.541189 86.382873,56.808164 80.831622,51.574158 76.250861,44.891988 69.081214,41.55645 58.17303,36.083001 45.724388,37.286826 33.905446,37.105737 v 60.473009 c 10.292706,0.252311 20.585418,0.504652 30.878128,0.756977 -11.50362,0.175424 -23.007234,0.350894 -34.510849,0.526315 z"
       id="path202"
       sodipodi:nodetypes="ccccccccccccccccccccccccccccccsccccccccsccccccccscccccccccc" />
  </g>
</svg>
